<svg xmlns="http://www.w3.org/2000/svg" version="1.1" viewBox="0 0 15 15" height="15" width="15">
   <style>
      .icon{fill:#00aecd}
   </style>
   <circle class="icon" r="0.75" cy="5.875" cx="5.75"/>
   <path  class="icon" d="M 2.3730468,1.0136718 C 1.6293185,1.0090776 1.1,1.3947866 1.1,2.5 1.100712,5.7520821 1.0996094,8.7129311 1.0996094,12 v 0.800781 h 0.013672 c -0.00328,0.03309 -0.00524,0.06633 -0.00586,0.09961 -4.7e-5,0.61699 0.447682,1.117187 1,1.117187 0.035907,-4.48e-4 0.071766,-0.0031 0.1074219,-0.0078 0.1364212,0.007 0.2721632,-0.02339 0.3925781,-0.08789 l 1.7871093,-0.917969 c 0.7171771,-0.35578 0.4527743,-1.437158 -0.3476562,-1.421875 -0.1186385,0.002 -0.2351089,0.03213 -0.3398438,0.08789 -0.103283,0.05499 -0.527302,0.28718 -0.7851561,-6e-6 C 2.8554801,11.595981 2.6990806,11.369862 2.699,11 V 3.6 c 0,-0.1796875 0.1147961,-0.6221743 0.7443593,-0.5921875 0.3595207,0.017124 -3.339e-4,-0.093424 3.9343887,2.0557392 3.934723,2.1491638 3.782409,2.0484663 3.786315,2.416917 0.0039,0.3684507 -0.18876,0.4917685 -1.730894,1.2489124 C 8.49789,9.1885766 7.417402,9.7134324 6.5507812,10.15625 V 7.8007812 c 0.014344,-1.014242 -1.5143439,-1.014242 -1.5,0 v 3.5996098 c 0.00122,0.56188 0.5970296,0.922973 1.0957032,0.664062 2.4529716,-1.278018 5.5232836,-2.8663569 5.8847656,-3.0624998 1.26589,-0.6868825 1.833985,-0.8936338 1.833985,-1.5585938 0,-0.6649601 -0.537481,-0.8589865 -1.535157,-1.3984375 -0.766,-0.4141818 -2.01987,-1.093933 -3.050781,-1.6328125 C 7.217474,3.3343502 4.7217202,2.0313785 3.2226563,1.2578125 2.7970476,1.0381845 2.4565191,1.0141875 2.3730468,1.0136718 Z" />
</svg>
