<svg xmlns="http://www.w3.org/2000/svg" version="1.1" viewBox="0 0 19 15" height="15" width="19">
   <style>
      .bg{fill:#fff;opacity:0.6;}
      .icon{fill:#00aecd}
   </style>
   <path class="bg" d="M0 0L19 0L 19 15L 5 15A5 5 0 0 1 0 10"/>
   <circle class="icon" r="0.75" cy="5.875" cx="8.75"/>
   <path class="icon" d="M 5.3730468,1.0136718 C 4.6293185,1.0090776 4.1,1.3947866 4.1,2.5 4.100712,5.7520821 4.0996094,8.7129311 4.0996094,12 v 0.800781 h 0.013672 c -0.00328,0.03309 -0.00524,0.06633 -0.00586,0.09961 -4.7e-5,0.61699 0.447682,1.117187 1,1.117187 0.035907,-4.48e-4 0.071766,-0.0031 0.1074219,-0.0078 0.1364212,0.007 0.2721632,-0.02339 0.3925781,-0.08789 l 1.7871093,-0.917969 c 0.7171771,-0.35578 0.4527743,-1.437158 -0.3476562,-1.421875 -0.1186385,0.002 -0.2351089,0.03213 -0.3398438,0.08789 -0.103283,0.05499 -0.527302,0.28718 -0.7851561,-6e-6 C 5.8554801,11.595981 5.6990806,11.369862 5.699,11 V 3.6 c 0,-0.1796875 0.1147961,-0.6221743 0.7443593,-0.5921875 0.3595207,0.017124 -3.339e-4,-0.093424 3.9343887,2.0557392 3.934723,2.1491638 3.782409,2.0484663 3.786315,2.416917 0.0039,0.3684507 -0.18876,0.4917685 -1.730894,1.2489124 C 11.49789,9.1885766 10.417402,9.7134324 9.5507812,10.15625 V 7.8007812 c 0.014344,-1.014242 -1.5143439,-1.014242 -1.5,0 v 3.5996098 c 0.00122,0.56188 0.5970296,0.922973 1.0957032,0.664062 2.4529716,-1.278018 5.5232836,-2.8663569 5.8847656,-3.0624998 1.26589,-0.6868825 1.833985,-0.8936338 1.833985,-1.5585938 0,-0.6649601 -0.537481,-0.8589865 -1.535157,-1.3984375 -0.766,-0.4141818 -2.01987,-1.093933 -3.050781,-1.6328125 C 10.217474,3.3343502 7.7217202,2.0313785 6.2226563,1.2578125 5.7970476,1.0381845 5.4565191,1.0141875 5.3730468,1.0136718 Z" />
</svg>
