<svg xmlns="http://www.w3.org/2000/svg" xmlns:xlink="http://www.w3.org/1999/xlink" preserveAspectRatio="xMidYMid" width="45" height="34" viewBox="0 0 45 34">
  <defs>
    <style>

      .cls-2 {
        fill: #ffffff;
      }
    </style>
  </defs>
  <path d="M43.630,26.020 C42.770,27.105 40.663,27.879 40.663,27.879 C40.663,27.879 24.989,33.509 24.989,33.509 C24.989,33.509 24.989,29.357 24.989,29.357 C24.989,29.357 36.524,25.247 36.524,25.247 C37.833,24.778 38.034,24.115 36.970,23.767 C35.908,23.418 33.985,23.518 32.675,23.989 C32.675,23.989 24.989,26.696 24.989,26.696 C24.989,26.696 24.989,22.387 24.989,22.387 C24.989,22.387 25.432,22.237 25.432,22.237 C25.432,22.237 27.653,21.451 30.776,21.105 C33.899,20.761 37.723,21.152 40.725,22.290 C44.108,23.359 44.489,24.935 43.630,26.020 ZM26.481,18.950 C26.481,18.950 26.481,8.332 26.481,8.332 C26.481,7.085 26.251,5.937 25.081,5.612 C24.185,5.325 23.629,6.157 23.629,7.403 C23.629,7.403 23.629,33.993 23.629,33.993 C23.629,33.993 16.458,31.717 16.458,31.717 C16.458,31.717 16.458,0.013 16.458,0.013 C19.507,0.579 23.949,1.917 26.337,2.722 C32.410,4.807 34.469,7.402 34.469,13.249 C34.469,18.948 30.951,21.108 26.481,18.950 ZM3.300,28.923 C-0.173,27.945 -0.751,25.907 0.832,24.733 C2.295,23.649 4.783,22.833 4.783,22.833 C4.783,22.833 15.065,19.177 15.065,19.177 C15.065,19.177 15.065,23.345 15.065,23.345 C15.065,23.345 7.666,25.993 7.666,25.993 C6.359,26.462 6.158,27.126 7.220,27.474 C8.283,27.822 10.207,27.723 11.516,27.253 C11.516,27.253 15.065,25.965 15.065,25.965 C15.065,25.965 15.065,29.694 15.065,29.694 C14.840,29.734 14.589,29.774 14.357,29.813 C10.807,30.393 7.026,30.151 3.300,28.923 ZM41.346,30.574 C41.795,30.574 42.216,30.748 42.533,31.069 C42.850,31.385 43.025,31.807 43.025,32.255 C43.025,32.705 42.850,33.125 42.533,33.441 C42.216,33.760 41.795,33.934 41.346,33.934 C40.897,33.934 40.477,33.760 40.159,33.441 C39.842,33.125 39.668,32.705 39.668,32.255 C39.668,31.329 40.420,30.574 41.346,30.574 ZM39.950,32.255 C39.950,32.628 40.095,32.979 40.359,33.241 C40.622,33.507 40.974,33.651 41.346,33.651 C42.117,33.651 42.742,33.025 42.742,32.255 C42.742,31.881 42.598,31.530 42.333,31.267 C42.070,31.001 41.718,30.858 41.346,30.858 C40.974,30.858 40.622,31.001 40.359,31.267 C40.095,31.530 39.950,31.881 39.950,32.255 ZM41.853,31.350 C42.037,31.431 42.130,31.587 42.130,31.809 C42.130,31.923 42.106,32.019 42.057,32.094 C42.022,32.148 41.972,32.192 41.916,32.230 C41.960,32.256 41.999,32.287 42.028,32.323 C42.068,32.375 42.091,32.458 42.094,32.571 C42.094,32.571 42.103,32.810 42.103,32.810 C42.106,32.874 42.110,32.923 42.120,32.953 C42.130,32.997 42.149,33.025 42.173,33.034 C42.173,33.034 42.198,33.046 42.198,33.046 C42.198,33.046 42.198,33.073 42.198,33.073 C42.198,33.073 42.198,33.114 42.198,33.114 C42.198,33.114 42.198,33.155 42.198,33.155 C42.198,33.155 42.157,33.155 42.157,33.155 C42.157,33.155 41.860,33.155 41.860,33.155 C41.860,33.155 41.836,33.155 41.836,33.155 C41.836,33.155 41.824,33.134 41.824,33.134 C41.814,33.114 41.807,33.091 41.800,33.061 C41.795,33.034 41.790,32.987 41.787,32.915 C41.787,32.915 41.772,32.618 41.772,32.618 C41.768,32.515 41.733,32.451 41.667,32.417 C41.626,32.398 41.558,32.389 41.466,32.389 C41.466,32.389 40.957,32.389 40.957,32.389 C40.957,32.389 40.957,33.114 40.957,33.114 C40.957,33.114 40.957,33.155 40.957,33.155 C40.957,33.155 40.915,33.155 40.915,33.155 C40.915,33.155 40.673,33.155 40.673,33.155 C40.673,33.155 40.632,33.155 40.632,33.155 C40.632,33.155 40.632,33.114 40.632,33.114 C40.632,33.114 40.632,31.327 40.632,31.327 C40.632,31.327 40.632,31.286 40.632,31.286 C40.632,31.286 40.673,31.286 40.673,31.286 C40.673,31.286 41.500,31.286 41.500,31.286 C41.642,31.286 41.761,31.307 41.853,31.350 ZM40.957,32.103 C40.957,32.103 41.475,32.103 41.475,32.103 C41.579,32.103 41.662,32.084 41.721,32.045 C41.775,32.006 41.801,31.935 41.801,31.832 C41.801,31.720 41.764,31.647 41.686,31.608 C41.643,31.587 41.583,31.575 41.507,31.575 C41.507,31.575 40.957,31.575 40.957,31.575 C40.957,31.575 40.957,32.103 40.957,32.103 Z" id="path-1" class="cls-2" fill-rule="evenodd"/>
</svg>
