<?xml version="1.0" encoding="utf-8"?>
<!-- Generator: Adobe Illustrator 23.0.1, SVG Export Plug-In . SVG Version: 6.00 Build 0)  -->
<svg version="1.1" id="レイヤー_1" xmlns="http://www.w3.org/2000/svg" xmlns:xlink="http://www.w3.org/1999/xlink" x="0px"
	 y="0px" viewBox="0 0 50 50" style="enable-background:new 0 0 50 50;" xml:space="preserve">
<style type="text/css">
	.st0{fill:#FFFFFF;}
</style>
<title>icon_help</title>
<g id="help">
	<path class="st0" d="M10.9,10.9c-7.8,7.8-7.8,20.5,0,28.3s20.5,7.8,28.3,0c7.8-7.8,7.8-20.5,0-28.3C31.3,3,18.7,3,10.9,10.9
		C10.9,10.9,10.9,10.9,10.9,10.9z M25,36.7c-1.5,0-2.7-1.2-2.7-2.7c0-1.5,1.2-2.7,2.7-2.7c1.5,0,2.7,1.2,2.7,2.7c0,0,0,0,0,0
		C27.7,35.5,26.5,36.7,25,36.7z M29.2,24.3c-1.1,0.6-2.1,1.2-2.1,2.4v2h-4.6v-2.2c0-2.8,1.8-3.7,3.6-4.6c0.6-0.3,1.4-0.8,1.4-1.8
		c-0.1-1.4-1.2-2.4-2.6-2.3c0,0-0.1,0-0.1,0c-1.3-0.1-2.6,0.8-2.8,2.1H18c0-4.8,3.7-6.5,6.8-6.5c4.6,0,7.4,2.5,7.4,6.4
		C32.2,22.6,30.6,23.5,29.2,24.3L29.2,24.3z"/>
</g>
</svg>
