<svg xmlns="http://www.w3.org/2000/svg" xmlns:xlink="http://www.w3.org/1999/xlink" preserveAspectRatio="xMidYMid" width="16" height="16" viewBox="0 0 16 16">
  <defs>
    <style>

      .cls-2 {
        fill: #ffffff;
      }
    </style>
  </defs>
  <path d="M11.053,8.961 C11.576,8.076 11.877,7.044 11.876,5.941 C11.876,2.660 9.218,0.002 5.938,0.002 C2.657,0.002 -0.001,2.660 -0.001,5.941 C-0.001,9.221 2.657,11.879 5.938,11.881 C7.040,11.879 8.073,11.580 8.958,11.055 C8.958,11.055 13.901,15.997 13.901,15.997 C13.901,15.997 15.995,13.904 15.995,13.904 C15.995,13.904 11.053,8.961 11.053,8.961 ZM5.938,10.028 C3.680,10.024 1.853,8.198 1.849,5.941 C1.853,3.683 3.680,1.857 5.938,1.852 C8.195,1.857 10.022,3.683 10.026,5.941 C10.022,8.198 8.195,10.024 5.938,10.028 Z" id="path-1" class="cls-2" fill-rule="evenodd"/>
</svg>
