<?xml version="1.0" encoding="utf-8"?>
<!-- Generator: Adobe Illustrator 23.0.1, SVG Export Plug-In . SVG Version: 6.00 Build 0)  -->
<svg version="1.1" id="レイヤー_1" xmlns="http://www.w3.org/2000/svg" xmlns:xlink="http://www.w3.org/1999/xlink" x="0px"
	 y="0px" viewBox="0 0 50 50" style="enable-background:new 0 0 50 50;" xml:space="preserve">
<style type="text/css">
	.st0{fill:#FFFFFF;}
</style>
<title>icon_people</title>
<g id="people">
	<path class="st0" d="M42.5,32.1c-0.4-0.1-0.9-0.2-1.1-0.6c0-0.1,0-0.2,0-0.2v-1.3c2.3-1.2,3.7-3.5,3.6-6.1c0.1-3.6-2.7-6.6-6.2-6.7
		c-0.8,0-1.6,0.2-2.3,0.5c0,0.5,0.1,0.9,0.1,1.4c0,3-1,5.9-3,8.1c5.4,1.9,8.1,6.1,8.1,12.6H49C49,35.3,47.1,32.8,42.5,32.1"/>
	<path class="st0" d="M13.4,19c0-0.5,0-0.9,0.1-1.4c-0.7-0.3-1.5-0.5-2.3-0.5c-3.6,0.1-6.4,3.1-6.2,6.7c0,2.6,1.4,4.9,3.6,6.1v1.3
		c0,0.1,0,0.1,0,0.2c-0.2,0.4-0.5,0.7-1,0.7C3.1,32.8,1,35.3,1,39.7h7.2c0-6.3,2.8-10.6,8.2-12.5C14.5,24.9,13.4,22,13.4,19"/>
	<path class="st0" d="M35.4,32c-1.6-1.3-3.5-2-5.6-2.3c-0.5-0.1-1.2-0.2-1.4-0.8c0-0.1,0-0.2-0.1-0.3v-1.6c3-1.5,4.8-4.6,4.8-7.9
		c0-4.8-3.6-8.7-8.1-8.7c-4.5,0-8.1,3.9-8.1,8.7c-0.1,3.3,1.8,6.4,4.7,7.9v1.6c0,0.1,0,0.2,0,0.2c-0.2,0.5-0.7,0.9-1.3,0.9
		c-2,0.3-3.9,1.1-5.6,2.3c-2,1.7-3.1,4.2-3.1,7.7h26.6C38.3,36.2,37.4,33.7,35.4,32"/>
</g>
</svg>
