<svg xmlns="http://www.w3.org/2000/svg" xmlns:xlink="http://www.w3.org/1999/xlink" preserveAspectRatio="xMidYMid" width="24" height="20" viewBox="0 0 48 40">
  <defs>
    <style>

      .cls-2 {
        fill: #ffffff;
      }
    </style>
  </defs>
  <path d="M44.000,24.000 C44.000,24.000 4.000,24.000 4.000,24.000 C1.791,24.000 0.000,22.210 0.000,20.000 C0.000,17.791 1.791,16.000 4.000,16.000 C4.000,16.000 44.000,16.000 44.000,16.000 C46.209,16.000 48.000,17.791 48.000,20.000 C48.000,22.210 46.209,24.000 44.000,24.000 ZM44.000,8.000 C44.000,8.000 4.000,8.000 4.000,8.000 C1.791,8.000 0.000,6.210 0.000,4.000 C0.000,1.791 1.791,0.000 4.000,0.000 C4.000,0.000 44.000,0.000 44.000,0.000 C46.209,0.000 48.000,1.791 48.000,4.000 C48.000,6.210 46.209,8.000 44.000,8.000 ZM4.000,32.001 C4.000,32.001 44.000,32.001 44.000,32.001 C46.209,32.001 48.000,33.791 48.000,36.000 C48.000,38.209 46.209,40.000 44.000,40.000 C44.000,40.000 4.000,40.000 4.000,40.000 C1.791,40.000 0.000,38.209 0.000,36.000 C0.000,33.791 1.791,32.001 4.000,32.001 Z" id="path-1" class="cls-2" fill-rule="evenodd"/>
</svg>
