<?xml version="1.0" encoding="utf-8"?>
<!-- Generator: Adobe Illustrator 22.1.0, SVG Export Plug-In . SVG Version: 6.00 Build 0)  -->
<svg version="1.1" id="レイヤー_1" xmlns="http://www.w3.org/2000/svg" xmlns:xlink="http://www.w3.org/1999/xlink" x="0px"
	 y="0px" width="228px" height="171px" viewBox="0 0 228 171" style="enable-background:new 0 0 228 171;" xml:space="preserve">
<style type="text/css">
	.st0{fill:#FFFFFF;}
</style>
<g id="Game_Finder">
	<g id="Game_Finder-2">
		<path class="st0" d="M103.4,92.6H89.7L68.5,123c-2.8,3.3-7.5,4.3-11.3,2.2c-4.6-2-7.2-6.9-6.1-11.8c0,0,10.1-41.5,13-55
			c1.2-6.7,6.3-12.1,13-13.5c6.4-1.6,13.1,0.4,17.6,5.1l1.6,2h5.8c1.9-3.9,4.3-7.4,7.2-10.6h-8.1c-7.1-6.5-17-9-26.4-6.9
			c-10.7,2.3-19,10.8-21,21.6c-2.9,13.5-13,54.8-13,54.8c-2.3,9.8,2.6,19.8,11.8,23.9c8.4,4.4,18.7,2,24.4-5.5l18.2-26h16.5
			c-2.8-2.6-5.3-5.6-7.3-8.8C104,93.8,103.7,93.2,103.4,92.6z"/>
		<path class="st0" d="M186,120l-15.4-24.6c13.4-16,11.3-39.9-4.7-53.3s-39.9-11.3-53.3,4.7s-11.3,39.9,4.7,53.3
			c9.3,7.8,21.8,10.7,33.6,7.7l15.4,24.6c3.4,5.4,10.6,7.1,16.1,3.7C187.8,132.6,189.4,125.4,186,120z M156,94.1
			c-12.7,8-29.5,4.1-37.5-8.6S114.4,56,127.1,48s29.5-4.1,37.5,8.6c0,0,0,0,0,0C172.6,69.3,168.8,86.1,156,94.1
			C156,94.1,156,94.1,156,94.1L156,94.1z"/>
	</g>
</g>
</svg>
