<?xml version="1.0" encoding="utf-8"?>
<!-- Generator: Adobe Illustrator 23.0.2, SVG Export Plug-In . SVG Version: 6.00 Build 0)  -->
<svg version="1.1" id="レイヤー_1" xmlns="http://www.w3.org/2000/svg" xmlns:xlink="http://www.w3.org/1999/xlink" x="0px"
	 y="0px" viewBox="0 0 228 171" style="enable-background:new 0 0 228 171;" xml:space="preserve">
<style type="text/css">
	.st0{display:none;}
	.st1{display:inline;fill:#FFFFFF;}
	.st2{fill:#FFFFFF;}
</style>
<title>icon_people</title>
<rect class="st0" width="228" height="171"/>
<g id="menu_x5F_supportcommunity" class="st0">
	<path class="st1" d="M166.5,104.1c-1.2-0.3-2.7-0.6-3.3-1.8c0-0.3,0-0.6,0-0.6v-3.9c6.9-3.6,11.1-10.5,10.8-18.3
		c0.3-10.8-8.1-19.8-18.6-20.1c-2.4,0-4.8,0.6-6.9,1.5c0,1.5,0.3,2.7,0.3,4.2c0,9-3,17.7-9,24.3c16.2,5.7,24.3,18.3,24.3,37.8H186
		C186,113.7,180.3,106.2,166.5,104.1"/>
	<path class="st1" d="M79.2,64.8c0-1.5,0-2.7,0.3-4.2c-2.1-0.9-4.5-1.5-6.9-1.5C61.8,59.4,53.4,68.4,54,79.2
		c0,7.8,4.2,14.7,10.8,18.3v3.9c0,0.3,0,0.3,0,0.6c-0.6,1.2-1.5,2.1-3,2.1c-13.5,2.1-19.8,9.6-19.8,22.8h21.6
		c0-18.9,8.4-31.8,24.6-37.5C82.5,82.5,79.2,73.8,79.2,64.8"/>
	<path class="st1" d="M145.2,103.8c-4.8-3.9-10.5-6-16.8-6.9c-1.5-0.3-3.6-0.6-4.2-2.4c0-0.3,0-0.6-0.3-0.9v-4.8
		c9-4.5,14.4-13.8,14.4-23.7c0-14.4-10.8-26.1-24.3-26.1S89.7,50.7,89.7,65.1c-0.3,9.9,5.4,19.2,14.1,23.7v4.8c0,0.3,0,0.6,0,0.6
		c-0.6,1.5-2.1,2.7-3.9,2.7c-6,0.9-11.7,3.3-16.8,6.9c-6,5.1-9.3,12.6-9.3,23.1h79.8C153.9,116.4,151.2,108.9,145.2,103.8"/>
</g>
<g id="menu_x5F_accountfaq" class="st0">
	<path class="st1" d="M63.1,35.2C35.1,63.3,35.1,109,63.1,137s73.7,28.1,101.8,0s28.1-73.7,0-101.8C136.5,6.8,91.2,6.8,63.1,35.2
		L63.1,35.2z M113.9,128.1c-5.4,0-9.7-4.3-9.7-9.7s4.3-9.7,9.7-9.7s9.7,4.3,9.7,9.7l0,0C123.6,123.7,119.3,128.1,113.9,128.1z
		 M129,83.5c-4,2.2-7.6,4.3-7.6,8.6v7.2h-16.6v-7.9c0-10.1,6.5-13.3,13-16.6c2.2-1.1,5-2.9,5-6.5c-0.4-5-4.3-8.6-9.3-8.3h-0.4
		c-4.7-0.4-9.3,2.9-10.1,7.6H88.7c0-17.3,13.3-23.4,24.5-23.4c16.6,0,26.6,9,26.6,23C139.8,77.3,134,80.6,129,83.5L129,83.5z"/>
</g>
<g id="menu_x5F_fixandconnect">
	<path id="Network-2" class="st2" d="M186,86c0-39.9-32.1-72-72-72S42,46.4,42,86c0,39.9,32.1,72,72,72C153.6,158,186,125.9,186,86z
		 M88.8,47c-4.5-0.9-9.3-2.4-13.5-4.2c6-5.4,13.2-9.6,21-12.3C93.3,35.9,90.6,41.3,88.8,47z M84.6,60.5c-1.5,6.3-2.4,12.6-2.7,18.9
		H56.4l0,0c1.2-9,4.2-17.7,9.3-25.2c0.3,0.3,0.9,0.6,1.2,0.6C72.6,57.2,78.6,59,84.6,60.5z M124.5,49.4c-3.6,0.3-6.9,0.6-10.5,0.6
		s-7.5-0.3-11.4-0.6c2.7-7.2,6.6-13.8,10.8-20.1l0,0C117.9,35.6,121.5,42.2,124.5,49.4z M95.7,79.1c0.3-5.4,1.2-11.1,2.7-16.5
		c5.1,0.6,10.5,0.9,15.6,0.9c4.8,0,9.9-0.3,14.7-0.9c1.2,5.4,2.1,10.8,2.7,16.5H95.7z M162.3,53.9c5.1,7.5,8.4,16.2,9.3,25.2h-26.4
		c-0.3-6.3-1.2-12.6-2.7-18.6c6.6-1.5,12.9-3.6,19.2-6.3C162,54.2,162,53.9,162.3,53.9L162.3,53.9z M152.4,42.5
		c-4.5,1.8-9.3,3.3-14.1,4.5c-2.1-5.7-4.8-11.4-7.8-16.8l0,0C138.9,32.9,146.4,37.1,152.4,42.5L152.4,42.5z M139.2,125
		c4.5,0.9,9.3,2.4,13.5,4.2c-6,5.4-13.2,9.6-21,12.3C134.7,136.1,137.4,130.7,139.2,125z M143.4,111.5c1.5-6.3,2.4-12.6,2.7-18.9
		h25.5l0,0c-1.2,9-4.2,17.7-9.3,25.2c-0.3-0.3-0.9-0.6-1.2-0.6C155.4,114.8,149.4,113,143.4,111.5L143.4,111.5z M103.5,122.6
		c3.6-0.3,6.9-0.6,10.5-0.6s7.5,0.3,11.4,0.6c-2.7,7.2-6.6,13.8-10.8,20.1l0,0C110.1,136.4,106.5,129.8,103.5,122.6L103.5,122.6z
		 M132.3,92.9c-0.3,5.4-1.2,11.1-2.7,16.5c-5.1-0.6-10.5-0.9-15.6-0.9c-4.8,0-9.9,0.3-14.7,0.9c-1.2-5.4-2.1-10.8-2.7-16.5H132.3z
		 M65.7,118.1c-5.1-7.5-8.4-16.2-9.3-25.2h26.4c0.3,6.3,1.2,12.6,2.7,18.6c-6.6,1.5-12.9,3.6-19.2,6.3C66,117.8,66,118.1,65.7,118.1
		z M75.3,129.5c4.5-1.8,9.3-3.3,14.1-4.5c2.1,5.7,4.8,11.4,7.8,16.8l0,0C89.1,139.1,81.6,134.9,75.3,129.5L75.3,129.5z"/>
</g>
</svg>
