<svg xmlns="http://www.w3.org/2000/svg" xmlns:xlink="http://www.w3.org/1999/xlink" preserveAspectRatio="xMidYMid" width="71" height="13" viewBox="0 0 71 13">
  <defs>
    <style>

      .cls-2 {
        fill: #ffffff;
      }
    </style>
  </defs>
  <path d="M69.599,2.170 C69.090,2.170 68.883,2.267 68.501,2.718 C68.326,2.924 64.384,7.602 64.277,7.729 C64.221,7.796 64.226,7.888 64.226,7.943 C64.226,8.031 64.226,10.012 64.226,10.223 C64.226,10.269 64.236,10.486 64.256,10.535 C64.303,10.652 64.406,10.764 64.557,10.812 C64.609,10.829 64.878,10.837 64.939,10.837 C65.214,10.837 66.373,10.837 66.373,10.837 C66.373,10.837 66.373,12.280 66.373,12.280 C66.373,12.280 58.758,12.280 58.758,12.280 C58.758,12.280 58.758,10.837 58.758,10.837 C58.758,10.837 60.116,10.838 60.116,10.838 C60.177,10.838 60.450,10.830 60.502,10.813 C60.653,10.764 60.756,10.653 60.803,10.536 C60.823,10.487 60.833,10.270 60.833,10.224 C60.833,10.224 60.834,8.019 60.834,7.943 C60.834,7.888 60.830,7.864 60.741,7.743 C60.642,7.609 56.742,3.012 56.564,2.811 C56.342,2.559 55.953,2.170 55.361,2.170 C54.891,2.170 54.005,2.170 54.005,2.170 C54.005,2.170 54.005,0.726 54.005,0.726 C54.005,0.726 61.659,0.726 61.659,0.726 C61.659,0.726 61.659,2.168 61.659,2.168 C61.659,2.168 60.914,2.168 60.736,2.168 C60.523,2.168 60.382,2.379 60.564,2.613 C60.564,2.613 63.139,5.817 63.163,5.851 C63.188,5.884 63.208,5.892 63.241,5.861 C63.273,5.829 65.880,2.643 65.901,2.617 C66.025,2.462 65.941,2.170 65.674,2.170 C65.495,2.170 64.727,2.170 64.727,2.170 C64.727,2.170 64.727,0.726 64.727,0.726 C64.727,0.726 71.000,0.726 71.000,0.726 C71.000,0.726 71.000,2.170 71.000,2.170 C71.000,2.170 70.069,2.170 69.599,2.170 ZM50.536,3.067 C50.536,3.067 50.655,12.284 50.655,12.284 C50.655,12.284 48.419,12.284 48.419,12.284 C48.419,12.284 39.628,4.123 39.628,4.123 C39.628,4.123 39.629,9.915 39.629,9.915 C39.637,10.544 39.665,10.841 40.289,10.841 C41.168,10.841 41.857,10.841 41.857,10.841 C41.857,10.841 41.857,12.283 41.857,12.283 C41.857,12.283 35.447,12.283 35.447,12.283 C35.447,12.283 35.447,10.841 35.447,10.841 C35.447,10.841 36.067,10.841 36.945,10.841 C37.505,10.841 37.483,10.286 37.483,9.882 C37.483,9.882 37.483,3.121 37.483,3.121 C37.483,2.685 37.424,2.171 36.545,2.171 C36.545,2.171 35.330,2.171 35.330,2.171 C35.330,2.171 35.330,0.726 35.330,0.726 C35.330,0.726 40.789,0.726 40.789,0.726 C40.789,0.726 48.423,7.890 48.423,7.890 C48.423,7.890 48.344,3.067 48.344,3.067 C48.336,2.434 48.224,2.170 47.567,2.170 C46.687,2.170 46.131,2.170 46.131,2.170 C46.131,2.170 46.131,0.727 46.131,0.727 C46.131,0.727 52.658,0.727 52.658,0.727 C52.658,0.727 52.658,2.170 52.658,2.170 C52.658,2.170 52.137,2.170 51.258,2.170 C50.587,2.170 50.545,2.394 50.536,3.067 ZM25.295,13.000 C22.723,13.000 20.336,12.198 18.742,10.711 C17.538,9.587 16.959,8.060 16.959,6.489 C16.959,4.936 17.563,3.399 18.742,2.281 C20.221,0.879 22.835,0.000 25.295,0.000 C28.017,0.000 30.196,0.714 31.862,2.285 C33.047,3.404 33.620,4.934 33.620,6.489 C33.620,7.996 33.012,9.600 31.862,10.711 C30.311,12.208 27.873,13.000 25.295,13.000 ZM28.810,3.090 C27.938,2.196 26.641,1.693 25.295,1.693 C23.944,1.693 22.646,2.191 21.773,3.090 C20.932,3.957 20.489,5.184 20.489,6.489 C20.489,7.790 20.936,9.015 21.773,9.881 C22.647,10.785 23.940,11.285 25.295,11.285 C26.660,11.285 27.926,10.795 28.810,9.881 C29.689,8.972 30.098,7.854 30.098,6.489 C30.098,5.181 29.656,3.957 28.810,3.090 ZM7.084,4.626 C8.052,4.731 10.074,5.013 10.968,5.241 C11.429,5.359 11.992,5.568 12.349,5.743 C12.759,5.942 13.152,6.203 13.474,6.537 C13.710,6.783 14.381,7.591 14.381,8.892 C14.381,10.247 13.609,10.994 13.258,11.285 C12.608,11.824 11.808,12.171 11.161,12.363 C10.474,12.568 9.480,12.880 7.630,12.880 C6.496,12.880 5.908,12.738 4.996,12.541 C3.884,12.298 2.820,11.858 2.458,11.687 C2.166,11.549 2.083,11.838 2.083,11.907 C2.083,12.024 2.083,12.522 2.083,12.522 C2.083,12.522 0.347,12.522 0.347,12.522 C0.347,12.522 0.347,7.973 0.347,7.973 C0.347,7.973 1.909,7.973 1.909,7.973 C1.909,8.513 2.155,9.058 2.312,9.257 C2.941,10.056 3.616,10.371 4.259,10.609 C4.817,10.816 6.348,11.215 7.622,11.215 C9.346,11.215 10.306,10.757 10.445,10.700 C10.584,10.642 11.384,10.372 11.384,9.490 C11.384,8.604 10.624,8.441 10.172,8.322 C9.604,8.172 8.207,8.024 6.788,7.869 C5.358,7.713 3.922,7.478 3.251,7.326 C1.748,6.984 1.174,6.402 0.817,6.060 C0.839,6.082 0.000,5.278 0.001,3.904 C0.001,2.379 1.004,1.460 2.230,0.891 C3.557,0.274 5.121,0.006 6.496,0.006 C8.924,0.010 10.904,0.835 11.604,1.216 C11.883,1.376 12.031,1.183 12.031,1.034 C12.031,1.034 12.031,0.574 12.031,0.574 C12.031,0.574 13.595,0.574 13.595,0.574 C13.595,0.574 13.595,4.534 13.595,4.534 C13.595,4.534 12.194,4.534 12.194,4.534 C12.043,3.801 11.624,3.277 11.326,3.024 C11.062,2.800 10.730,2.610 10.446,2.478 C9.610,2.090 8.297,1.721 6.746,1.727 C5.434,1.727 4.176,1.980 3.553,2.385 C3.160,2.641 2.962,2.957 2.962,3.330 C2.962,3.854 3.396,4.069 3.609,4.138 C4.311,4.364 6.071,4.516 7.084,4.626 Z" id="path-1" class="cls-2" fill-rule="evenodd"/>
</svg>
